<svg xmlns="http://www.w3.org/2000/svg" viewBox="0 0 48 48" width="480" height="480"><path fill="#37474f" d="M24 44a20 20 0 1 1 0-40 20 20 0 0 1 0 40z"/><path fill="#fff" d="M34.5 24a10.5 10.5 0 1 0-21 0 10.5 10.5 0 0 0 21 0z"/><path fill="#448aff" d="M24 14c-5.5.1-9.9 4.5-10 10h10V14zm0 20c5.5-.1 9.9-4.5 10-10H24v10z"/><path fill="#cfd8dc" d="M15.6 13.2c-.1-.5-.4-1-.9-1.1-.4-.2-1-.2-1.3.1l-.1.1v-.7c0-.2-.2-.4-.4-.6a1.3 1.3 0 0 0-1.8.1l-.2.3L9.6 13l-1 1.3-.2.1h.1l.4.4 1.6 1.3 1.6 1.2a37.2 37.2 0 0 0 .4.4v-.1l1.2-1.4 1.3-1.6c.2-.2.4-.5.5-.9v-.5zm-4.7 1.5-.6-.5-.3-.2.1-.1 1.2-1.5.4-.4c.2 0 .5 0 .7.2l.1.5c0 .2-.2.3-.3.4l-.6.8-.7.8zm3.3-.6-.5.5-1 1.4h-.1a83.4 83.4 0 0 1-1-.7l1.1-1.3.5-.6c.1-.2.3-.3.5-.3s.4.2.5.4v.6zm22.3-3-1-1-3 4.1.9 1 3.4-1.7-2.3 3 .7 1.2 4.7-2.2-.7-1.1-2.7 1.2 2-2.5-1-1-2.8 1.3zm-14-3.4 1 3.5h1l1-3.5.1 3.5 1.3.2-.2-5.2L25 6 24 9.6 22.9 6l-1.6.2-.2 5.2 1.3-.2z"/><path fill="#fff" d="M24 35a11 11 0 1 1 0-22 11 11 0 0 1 0 22zm0-20a9 9 0 1 0 0 18 9 9 0 0 0 0-18z"/></svg>